# xmcd
#
# Track frame offsets:
#	150
#	15193
#	27623
#	43630
#	57941
#	72124
#	87250
#	99898
#	111805
#	123265
#	138069
#	151839
#	168950
#	183666
#	197041
#	210225
#	224045
#	243972
#	257259
#	271114
#	286135
#	301052
#	316173
#
# Disc length: 4419 seconds
#
# Revision: 0
# Processed by: cddbd v1.4PL0 Copyright (c) Steve Scherf et al.
# Submitted via: EasyCDDAExtractor 4.6.0.1
#
DISCID=29114117
DTITLE=Varios - Corridos Famosos
DYEAR=1999
DGENRE=Norteñas
TTITLE0=Intro
TTITLE1=Pistoleros Famosos
TTITLE2=Simon Blanco
TTITLE3=Caballo Jovero
TTITLE4=La carga ladeada
TTITLE5=Chito Cano
TTITLE6=El Asesino
TTITLE7=Gabino Barrera
TTITLE8=Gerardo Gonzalez
TTITLE9=El hijo Desobediente
TTITLE10=Las tres tumbas
TTITLE11=Juan Charrasqueado
TTITLE12=Lamberto Quintero
TTITLE13=Los dos Amigos
TTITLE14=Lucio Vazquez
TTITLE15=Luis Pulido
TTITLE16=El Ojo de Vidrio
TTITLE17=Benjamin Argumedo
TTITLE18=Lucio Peña
TTITLE19=Caballo Prieto Azabache
TTITLE20=La Martina
TTITLE21=Caballo Blanco
TTITLE22=Contrabando en la Frontera
EXTD=
EXTT0=
EXTT1=
EXTT2=
EXTT3=
EXTT4=
EXTT5=
EXTT6=
EXTT7=
EXTT8=
EXTT9=
EXTT10=
EXTT11=
EXTT12=
EXTT13=
EXTT14=
EXTT15=
EXTT16=
EXTT17=
EXTT18=
EXTT19=
EXTT20=
EXTT21=
EXTT22=
PLAYORDER=
